<svg width="40" height="40" viewBox="0 0 40 40" fill="none" xmlns="http://www.w3.org/2000/svg">
<path d="M39.405 8.22836C38.0133 8.84503 36.5183 9.26169 34.9466 9.45003C36.5683 8.47968 37.7816 6.95247 38.36 5.15336C36.8364 6.05834 35.1689 6.69535 33.43 7.03669C32.2606 5.78814 30.7117 4.96057 29.0239 4.68248C27.336 4.4044 25.6035 4.69135 24.0954 5.49878C22.5873 6.30622 21.3879 7.58896 20.6836 9.14787C19.9792 10.7068 19.8092 12.4546 20.2 14.12C17.1128 13.965 14.0927 13.1626 11.3357 11.7649C8.57868 10.3671 6.14638 8.4053 4.19665 6.00669C3.52998 7.15669 3.14665 8.49003 3.14665 9.91003C3.1459 11.1884 3.4607 12.4471 4.06311 13.5746C4.66552 14.7021 5.53691 15.6634 6.59998 16.3734C5.36711 16.3341 4.16143 16.001 3.08331 15.4017V15.5017C3.08319 17.2946 3.70337 19.0323 4.83862 20.42C5.97387 21.8077 7.55426 22.7599 9.31165 23.115C8.16795 23.4246 6.96887 23.4701 5.80498 23.2484C6.30081 24.791 7.26664 26.1401 8.56726 27.1066C9.86788 28.0731 11.4382 28.6087 13.0583 28.6384C10.308 30.7974 6.91146 31.9685 3.41498 31.9634C2.79561 31.9635 2.17677 31.9274 1.56165 31.855C5.11077 34.137 9.24221 35.3481 13.4616 35.3434C27.745 35.3434 35.5533 23.5134 35.5533 13.2534C35.5533 12.92 35.545 12.5834 35.53 12.25C37.0488 11.1517 38.3598 9.79152 39.4016 8.23336L39.405 8.22836Z" fill="white"/>
</svg>
