<svg width="40" height="40" viewBox="0 0 40 40" fill="none" xmlns="http://www.w3.org/2000/svg">
<path d="M36.6667 14.3467V27.9167C36.6668 29.3002 36.1374 30.6314 35.1873 31.6371C34.2371 32.6427 32.938 33.2467 31.5567 33.325L31.25 33.3334H8.75004C7.36648 33.3334 6.03533 32.8041 5.02966 31.8539C4.02399 30.9037 3.42004 29.6047 3.34171 28.2234L3.33337 27.9167V14.3467L19.42 22.7734C19.599 22.8671 19.798 22.9161 20 22.9161C20.2021 22.9161 20.4011 22.8671 20.58 22.7734L36.6667 14.3467ZM8.75004 6.66669H31.25C32.5927 6.66653 33.8875 7.16501 34.8834 8.06547C35.8794 8.96592 36.5054 10.2042 36.64 11.54L20 20.2567L3.36004 11.54C3.48925 10.2572 4.07179 9.06255 5.00296 8.17079C5.93412 7.27903 7.15284 6.74867 8.44004 6.67502L8.75004 6.66669H31.25H8.75004Z" fill="#FBFBFB"/>
</svg>
